# xmcd
#
# Track frame offsets:
#	150
#	10271
#	22199
#	35953
#	47376
#	61241
#	71578
#	82545
#	95888
#	111178
#	127993
#	140552
#	152561
#	166879
#	178867
#	192070
#	208481
#	221176
#	231561
#	242845
#	255014
#	267702
#	279509
#	293189
#	312017
#	327505
#
# Disc length: 4536 seconds
#
# Revision: 0
# Processed by: cddbd v1.5.2PL0 Copyright (c) Steve Scherf et al.
# Submitted via: audiograbber 1.83.01
#
DISCID=8811b61a
DTITLE=Various Artist - Classic Country #7
DYEAR=1900
DGENRE=Country
TTITLE0=Billy Crash Craddock - Ain't Nothjing Shaking
TTITLE1=Dave and Sugar - I'm Knee Deep In Loving You
TTITLE2=Dottsy - I'll Be Your  San Antonio Rose
TTITLE3=Janie Fricke - Down To My Last Broken Heart
TTITLE4=Nat Stucky - She Wakes Me With A Kiss
TTITLE5=Patsy Cline - Three Cigarettes In An Ashe Tray
TTITLE6=Loretta Lynn - The One You Need
TTITLE7=Billy Ed Wheeler - I Ain't The Worrying Kind
TTITLE8=Bob Luman - Neither One Of Us Wants To be First
TTITLE9=Cal Smith - Country Bumpkin
TTITLE10=George Jones - Waltz Of The Angels
TTITLE11=Ernest Tubb - Our HeaRTS aRE                                          
TTITLE11=                                                            
TTITLE11=                          Our Hearts Are Holding Hands      
TTITLE11=                                                            
TTITLE11= 
TTITLE12=Don Williams - Amanda
TTITLE13=Henson Cargill - Skip A Rope
TTITLE14=Osborne Brothers - My Favorite Mommy
TTITLE15=Johnny Bond - 10 Little Bottles
TTITLE16=Charlie Pride - Mountain Of Love
TTITLE17=Merle Haggard - If You Want To Be My Woman
TTITLE18=Bill Anderson - Happy State Of Mind
TTITLE19=Billy Walker - Circumstances
TTITLE20=Buck Owens - Under Your Spell Again
TTITLE21=Conway Twitty - Darling You Know I Wouldn't Lie
TTITLE22=Dottie West - Paper Mansions
TTITLE23=Earl Thomas Conley - Somewhere Between Right and Wrong
TTITLE24=Eddie Rabbitt - Gone To Far                             
TTITLE25=Porter Wagoner - Tomorrow Is Forever
EXTD=
EXTT0=
EXTT1=
EXTT2=
EXTT3=
EXTT4=
EXTT5=
EXTT6=
EXTT7=
EXTT8=
EXTT9=
EXTT10=
EXTT11=
EXTT12=
EXTT13=
EXTT14=
EXTT15=
EXTT16=
EXTT17=
EXTT18=
EXTT19=
EXTT20=
EXTT21=
EXTT22=
EXTT23=
EXTT24=
EXTT25=
PLAYORDER=
